<mxfile host="app.diagrams.net" modified="2022-05-03T14:16:13.834Z" agent="5.0 (Windows)" etag="wpluH7jI3J7rsSXktsUd" version="17.4.2" type="github">
  <diagram id="TEH-tee45DtzhIemd7Sm" name="Page-1">
    <mxGraphModel dx="481" dy="326" grid="1" gridSize="10" guides="1" tooltips="1" connect="1" arrows="1" fold="1" page="1" pageScale="1" pageWidth="827" pageHeight="1169" math="0" shadow="0">
      <root>
        <mxCell id="0" />
        <mxCell id="1" parent="0" />
        <mxCell id="fqnQrnvz9RXQJ69IqJUL-1" style="edgeStyle=orthogonalEdgeStyle;rounded=0;orthogonalLoop=1;jettySize=auto;html=1;entryX=0;entryY=0.5;entryDx=0;entryDy=0;strokeColor=#009100;" edge="1" parent="1" source="fqnQrnvz9RXQJ69IqJUL-2" target="fqnQrnvz9RXQJ69IqJUL-6">
          <mxGeometry relative="1" as="geometry" />
        </mxCell>
        <mxCell id="fqnQrnvz9RXQJ69IqJUL-2" value="iris.csv" style="ellipse;whiteSpace=wrap;html=1;strokeColor=#009100;fillColor=#cdeb8b;fontColor=#009100;" vertex="1" parent="1">
          <mxGeometry x="20" y="161" width="60" height="40" as="geometry" />
        </mxCell>
        <mxCell id="fqnQrnvz9RXQJ69IqJUL-3" value="Prétraitements" style="swimlane;fontStyle=0;childLayout=stackLayout;horizontal=1;startSize=26;fillColor=#647687;horizontalStack=0;resizeParent=1;resizeParentMax=0;resizeLast=0;collapsible=1;marginBottom=0;strokeColor=#314354;fontColor=#ffffff;" vertex="1" parent="1">
          <mxGeometry x="130" y="90" width="180" height="286" as="geometry" />
        </mxCell>
        <mxCell id="fqnQrnvz9RXQJ69IqJUL-4" value=" " style="text;strokeColor=none;fillColor=none;align=left;verticalAlign=top;spacingLeft=4;spacingRight=4;overflow=hidden;rotatable=0;points=[[0,0.5],[1,0.5]];portConstraint=eastwest;" vertex="1" parent="fqnQrnvz9RXQJ69IqJUL-3">
          <mxGeometry y="26" width="180" height="26" as="geometry" />
        </mxCell>
        <mxCell id="fqnQrnvz9RXQJ69IqJUL-5" value="Weka" style="swimlane;fontStyle=0;childLayout=stackLayout;horizontal=1;startSize=26;fillColor=#1ba1e2;horizontalStack=0;resizeParent=1;resizeParentMax=0;resizeLast=0;collapsible=1;marginBottom=0;strokeColor=#006EAF;fontColor=#ffffff;" vertex="1" parent="fqnQrnvz9RXQJ69IqJUL-3">
          <mxGeometry y="52" width="180" height="52" as="geometry" />
        </mxCell>
        <mxCell id="fqnQrnvz9RXQJ69IqJUL-6" value="Resample" style="text;strokeColor=none;fillColor=none;align=center;verticalAlign=top;spacingLeft=4;spacingRight=4;overflow=hidden;rotatable=0;points=[[0,0.5],[1,0.5]];portConstraint=eastwest;" vertex="1" parent="fqnQrnvz9RXQJ69IqJUL-5">
          <mxGeometry y="26" width="180" height="26" as="geometry" />
        </mxCell>
        <mxCell id="fqnQrnvz9RXQJ69IqJUL-7" value=" " style="text;strokeColor=none;fillColor=none;align=left;verticalAlign=top;spacingLeft=4;spacingRight=4;overflow=hidden;rotatable=0;points=[[0,0.5],[1,0.5]];portConstraint=eastwest;" vertex="1" parent="fqnQrnvz9RXQJ69IqJUL-3">
          <mxGeometry y="104" width="180" height="26" as="geometry" />
        </mxCell>
        <mxCell id="fqnQrnvz9RXQJ69IqJUL-8" value="Orange" style="swimlane;fontStyle=0;childLayout=stackLayout;horizontal=1;startSize=26;fillColor=#fa6800;horizontalStack=0;resizeParent=1;resizeParentMax=0;resizeLast=0;collapsible=1;marginBottom=0;strokeColor=#C73500;fontColor=#000000;" vertex="1" parent="fqnQrnvz9RXQJ69IqJUL-3">
          <mxGeometry y="130" width="180" height="52" as="geometry" />
        </mxCell>
        <mxCell id="fqnQrnvz9RXQJ69IqJUL-9" value="Discretize" style="text;strokeColor=none;fillColor=none;align=center;verticalAlign=top;spacingLeft=4;spacingRight=4;overflow=hidden;rotatable=0;points=[[0,0.5],[1,0.5]];portConstraint=eastwest;" vertex="1" parent="fqnQrnvz9RXQJ69IqJUL-8">
          <mxGeometry y="26" width="180" height="26" as="geometry" />
        </mxCell>
        <mxCell id="fqnQrnvz9RXQJ69IqJUL-10" value=" &#xa;" style="text;strokeColor=none;fillColor=none;align=left;verticalAlign=top;spacingLeft=4;spacingRight=4;overflow=hidden;rotatable=0;points=[[0,0.5],[1,0.5]];portConstraint=eastwest;" vertex="1" parent="fqnQrnvz9RXQJ69IqJUL-3">
          <mxGeometry y="182" width="180" height="26" as="geometry" />
        </mxCell>
        <mxCell id="fqnQrnvz9RXQJ69IqJUL-11" value="Scikit-Learn" style="swimlane;fontStyle=0;childLayout=stackLayout;horizontal=1;startSize=26;fillColor=#e3c800;horizontalStack=0;resizeParent=1;resizeParentMax=0;resizeLast=0;collapsible=1;marginBottom=0;strokeColor=#B09500;fontColor=#000000;align=center;" vertex="1" parent="fqnQrnvz9RXQJ69IqJUL-3">
          <mxGeometry y="208" width="180" height="52" as="geometry" />
        </mxCell>
        <mxCell id="fqnQrnvz9RXQJ69IqJUL-12" value=" &#xa;" style="text;strokeColor=none;fillColor=none;align=left;verticalAlign=top;spacingLeft=4;spacingRight=4;overflow=hidden;rotatable=0;points=[[0,0.5],[1,0.5]];portConstraint=eastwest;" vertex="1" parent="fqnQrnvz9RXQJ69IqJUL-3">
          <mxGeometry y="260" width="180" height="26" as="geometry" />
        </mxCell>
        <mxCell id="fqnQrnvz9RXQJ69IqJUL-13" value="Sélection d&#39;attributs" style="swimlane;fontStyle=0;childLayout=stackLayout;horizontal=1;startSize=26;fillColor=#647687;horizontalStack=0;resizeParent=1;resizeParentMax=0;resizeLast=0;collapsible=1;marginBottom=0;strokeColor=#314354;fontColor=#ffffff;" vertex="1" parent="1">
          <mxGeometry x="470" y="90" width="180" height="286" as="geometry" />
        </mxCell>
        <mxCell id="fqnQrnvz9RXQJ69IqJUL-14" value=" " style="text;strokeColor=none;fillColor=none;align=left;verticalAlign=top;spacingLeft=4;spacingRight=4;overflow=hidden;rotatable=0;points=[[0,0.5],[1,0.5]];portConstraint=eastwest;" vertex="1" parent="fqnQrnvz9RXQJ69IqJUL-13">
          <mxGeometry y="26" width="180" height="26" as="geometry" />
        </mxCell>
        <mxCell id="fqnQrnvz9RXQJ69IqJUL-15" value="Weka" style="swimlane;fontStyle=0;childLayout=stackLayout;horizontal=1;startSize=26;fillColor=#1ba1e2;horizontalStack=0;resizeParent=1;resizeParentMax=0;resizeLast=0;collapsible=1;marginBottom=0;strokeColor=#006EAF;fontColor=#ffffff;" vertex="1" parent="fqnQrnvz9RXQJ69IqJUL-13">
          <mxGeometry y="52" width="180" height="52" as="geometry" />
        </mxCell>
        <mxCell id="fqnQrnvz9RXQJ69IqJUL-16" value=" " style="text;strokeColor=none;fillColor=none;align=left;verticalAlign=top;spacingLeft=4;spacingRight=4;overflow=hidden;rotatable=0;points=[[0,0.5],[1,0.5]];portConstraint=eastwest;" vertex="1" parent="fqnQrnvz9RXQJ69IqJUL-13">
          <mxGeometry y="104" width="180" height="26" as="geometry" />
        </mxCell>
        <mxCell id="fqnQrnvz9RXQJ69IqJUL-17" value="Orange" style="swimlane;fontStyle=0;childLayout=stackLayout;horizontal=1;startSize=26;fillColor=#fa6800;horizontalStack=0;resizeParent=1;resizeParentMax=0;resizeLast=0;collapsible=1;marginBottom=0;strokeColor=#C73500;fontColor=#000000;" vertex="1" parent="fqnQrnvz9RXQJ69IqJUL-13">
          <mxGeometry y="130" width="180" height="52" as="geometry" />
        </mxCell>
        <mxCell id="fqnQrnvz9RXQJ69IqJUL-18" value="drop(petal.width)" style="text;strokeColor=none;fillColor=none;align=center;verticalAlign=top;spacingLeft=4;spacingRight=4;overflow=hidden;rotatable=0;points=[[0,0.5],[1,0.5]];portConstraint=eastwest;" vertex="1" parent="fqnQrnvz9RXQJ69IqJUL-17">
          <mxGeometry y="26" width="180" height="26" as="geometry" />
        </mxCell>
        <mxCell id="fqnQrnvz9RXQJ69IqJUL-19" value=" &#xa;" style="text;strokeColor=none;fillColor=none;align=left;verticalAlign=top;spacingLeft=4;spacingRight=4;overflow=hidden;rotatable=0;points=[[0,0.5],[1,0.5]];portConstraint=eastwest;" vertex="1" parent="fqnQrnvz9RXQJ69IqJUL-13">
          <mxGeometry y="182" width="180" height="26" as="geometry" />
        </mxCell>
        <mxCell id="fqnQrnvz9RXQJ69IqJUL-20" value="Scikit-Learn" style="swimlane;fontStyle=0;childLayout=stackLayout;horizontal=1;startSize=26;fillColor=#e3c800;horizontalStack=0;resizeParent=1;resizeParentMax=0;resizeLast=0;collapsible=1;marginBottom=0;strokeColor=#B09500;fontColor=#000000;" vertex="1" parent="fqnQrnvz9RXQJ69IqJUL-13">
          <mxGeometry y="208" width="180" height="52" as="geometry" />
        </mxCell>
        <mxCell id="fqnQrnvz9RXQJ69IqJUL-21" value=" &#xa;" style="text;strokeColor=none;fillColor=none;align=left;verticalAlign=top;spacingLeft=4;spacingRight=4;overflow=hidden;rotatable=0;points=[[0,0.5],[1,0.5]];portConstraint=eastwest;" vertex="1" parent="fqnQrnvz9RXQJ69IqJUL-13">
          <mxGeometry y="260" width="180" height="26" as="geometry" />
        </mxCell>
        <mxCell id="fqnQrnvz9RXQJ69IqJUL-22" value="Classification" style="swimlane;fontStyle=0;childLayout=stackLayout;horizontal=1;startSize=26;fillColor=#647687;horizontalStack=0;resizeParent=1;resizeParentMax=0;resizeLast=0;collapsible=1;marginBottom=0;strokeColor=#314354;fontColor=#ffffff;" vertex="1" parent="1">
          <mxGeometry x="860" y="90" width="180" height="286" as="geometry" />
        </mxCell>
        <mxCell id="fqnQrnvz9RXQJ69IqJUL-23" value=" " style="text;strokeColor=none;fillColor=none;align=left;verticalAlign=top;spacingLeft=4;spacingRight=4;overflow=hidden;rotatable=0;points=[[0,0.5],[1,0.5]];portConstraint=eastwest;" vertex="1" parent="fqnQrnvz9RXQJ69IqJUL-22">
          <mxGeometry y="26" width="180" height="26" as="geometry" />
        </mxCell>
        <mxCell id="fqnQrnvz9RXQJ69IqJUL-24" value="Weka" style="swimlane;fontStyle=0;childLayout=stackLayout;horizontal=1;startSize=26;fillColor=#1ba1e2;horizontalStack=0;resizeParent=1;resizeParentMax=0;resizeLast=0;collapsible=1;marginBottom=0;strokeColor=#006EAF;fontColor=#ffffff;" vertex="1" parent="fqnQrnvz9RXQJ69IqJUL-22">
          <mxGeometry y="52" width="180" height="52" as="geometry" />
        </mxCell>
        <mxCell id="fqnQrnvz9RXQJ69IqJUL-25" value=" " style="text;strokeColor=none;fillColor=none;align=left;verticalAlign=top;spacingLeft=4;spacingRight=4;overflow=hidden;rotatable=0;points=[[0,0.5],[1,0.5]];portConstraint=eastwest;" vertex="1" parent="fqnQrnvz9RXQJ69IqJUL-22">
          <mxGeometry y="104" width="180" height="26" as="geometry" />
        </mxCell>
        <mxCell id="fqnQrnvz9RXQJ69IqJUL-26" value="Orange" style="swimlane;fontStyle=0;childLayout=stackLayout;horizontal=1;startSize=26;fillColor=#fa6800;horizontalStack=0;resizeParent=1;resizeParentMax=0;resizeLast=0;collapsible=1;marginBottom=0;strokeColor=#C73500;fontColor=#000000;" vertex="1" parent="fqnQrnvz9RXQJ69IqJUL-22">
          <mxGeometry y="130" width="180" height="52" as="geometry" />
        </mxCell>
        <mxCell id="fqnQrnvz9RXQJ69IqJUL-27" value=" &#xa;" style="text;strokeColor=none;fillColor=none;align=left;verticalAlign=top;spacingLeft=4;spacingRight=4;overflow=hidden;rotatable=0;points=[[0,0.5],[1,0.5]];portConstraint=eastwest;" vertex="1" parent="fqnQrnvz9RXQJ69IqJUL-22">
          <mxGeometry y="182" width="180" height="26" as="geometry" />
        </mxCell>
        <mxCell id="fqnQrnvz9RXQJ69IqJUL-28" value="Scikit-Learn" style="swimlane;fontStyle=0;childLayout=stackLayout;horizontal=1;startSize=26;fillColor=#e3c800;horizontalStack=0;resizeParent=1;resizeParentMax=0;resizeLast=0;collapsible=1;marginBottom=0;strokeColor=#B09500;fontColor=#000000;" vertex="1" parent="fqnQrnvz9RXQJ69IqJUL-22">
          <mxGeometry y="208" width="180" height="52" as="geometry" />
        </mxCell>
        <mxCell id="fqnQrnvz9RXQJ69IqJUL-29" value="Calcul des Kmeans" style="text;strokeColor=none;fillColor=none;align=center;verticalAlign=top;spacingLeft=4;spacingRight=4;overflow=hidden;rotatable=0;points=[[0,0.5],[1,0.5]];portConstraint=eastwest;" vertex="1" parent="fqnQrnvz9RXQJ69IqJUL-28">
          <mxGeometry y="26" width="180" height="26" as="geometry" />
        </mxCell>
        <mxCell id="fqnQrnvz9RXQJ69IqJUL-30" value=" &#xa;" style="text;strokeColor=none;fillColor=none;align=left;verticalAlign=top;spacingLeft=4;spacingRight=4;overflow=hidden;rotatable=0;points=[[0,0.5],[1,0.5]];portConstraint=eastwest;" vertex="1" parent="fqnQrnvz9RXQJ69IqJUL-22">
          <mxGeometry y="260" width="180" height="26" as="geometry" />
        </mxCell>
        <mxCell id="fqnQrnvz9RXQJ69IqJUL-31" value="Règles d&#39;associations" style="swimlane;fontStyle=0;childLayout=stackLayout;horizontal=1;startSize=26;fillColor=#647687;horizontalStack=0;resizeParent=1;resizeParentMax=0;resizeLast=0;collapsible=1;marginBottom=0;strokeColor=#314354;fontColor=#ffffff;" vertex="1" parent="1">
          <mxGeometry x="860" y="442" width="180" height="286" as="geometry" />
        </mxCell>
        <mxCell id="fqnQrnvz9RXQJ69IqJUL-32" value=" " style="text;strokeColor=none;fillColor=none;align=left;verticalAlign=top;spacingLeft=4;spacingRight=4;overflow=hidden;rotatable=0;points=[[0,0.5],[1,0.5]];portConstraint=eastwest;" vertex="1" parent="fqnQrnvz9RXQJ69IqJUL-31">
          <mxGeometry y="26" width="180" height="26" as="geometry" />
        </mxCell>
        <mxCell id="fqnQrnvz9RXQJ69IqJUL-33" value="Weka" style="swimlane;fontStyle=0;childLayout=stackLayout;horizontal=1;startSize=26;fillColor=#1ba1e2;horizontalStack=0;resizeParent=1;resizeParentMax=0;resizeLast=0;collapsible=1;marginBottom=0;strokeColor=#006EAF;fontColor=#ffffff;" vertex="1" parent="fqnQrnvz9RXQJ69IqJUL-31">
          <mxGeometry y="52" width="180" height="52" as="geometry" />
        </mxCell>
        <mxCell id="fqnQrnvz9RXQJ69IqJUL-34" value="Apriori" style="text;align=center;fontStyle=0;verticalAlign=middle;spacingLeft=3;spacingRight=3;strokeColor=none;rotatable=0;points=[[0,0.5],[1,0.5]];portConstraint=eastwest;fontColor=#003000;" vertex="1" parent="fqnQrnvz9RXQJ69IqJUL-33">
          <mxGeometry y="26" width="180" height="26" as="geometry" />
        </mxCell>
        <mxCell id="fqnQrnvz9RXQJ69IqJUL-35" value=" " style="text;strokeColor=none;fillColor=none;align=left;verticalAlign=top;spacingLeft=4;spacingRight=4;overflow=hidden;rotatable=0;points=[[0,0.5],[1,0.5]];portConstraint=eastwest;" vertex="1" parent="fqnQrnvz9RXQJ69IqJUL-31">
          <mxGeometry y="104" width="180" height="26" as="geometry" />
        </mxCell>
        <mxCell id="fqnQrnvz9RXQJ69IqJUL-36" value="Orange" style="swimlane;fontStyle=0;childLayout=stackLayout;horizontal=1;startSize=26;fillColor=#fa6800;horizontalStack=0;resizeParent=1;resizeParentMax=0;resizeLast=0;collapsible=1;marginBottom=0;strokeColor=#C73500;fontColor=#000000;" vertex="1" parent="fqnQrnvz9RXQJ69IqJUL-31">
          <mxGeometry y="130" width="180" height="52" as="geometry" />
        </mxCell>
        <mxCell id="fqnQrnvz9RXQJ69IqJUL-37" value=" &#xa;" style="text;strokeColor=none;fillColor=none;align=left;verticalAlign=top;spacingLeft=4;spacingRight=4;overflow=hidden;rotatable=0;points=[[0,0.5],[1,0.5]];portConstraint=eastwest;" vertex="1" parent="fqnQrnvz9RXQJ69IqJUL-31">
          <mxGeometry y="182" width="180" height="26" as="geometry" />
        </mxCell>
        <mxCell id="fqnQrnvz9RXQJ69IqJUL-38" value="Scikit-Learn" style="swimlane;fontStyle=0;childLayout=stackLayout;horizontal=1;startSize=26;fillColor=#e3c800;horizontalStack=0;resizeParent=1;resizeParentMax=0;resizeLast=0;collapsible=1;marginBottom=0;strokeColor=#B09500;fontColor=#000000;" vertex="1" parent="fqnQrnvz9RXQJ69IqJUL-31">
          <mxGeometry y="208" width="180" height="52" as="geometry" />
        </mxCell>
        <mxCell id="fqnQrnvz9RXQJ69IqJUL-39" value=" &#xa;" style="text;strokeColor=none;fillColor=none;align=left;verticalAlign=top;spacingLeft=4;spacingRight=4;overflow=hidden;rotatable=0;points=[[0,0.5],[1,0.5]];portConstraint=eastwest;" vertex="1" parent="fqnQrnvz9RXQJ69IqJUL-31">
          <mxGeometry y="260" width="180" height="26" as="geometry" />
        </mxCell>
        <mxCell id="fqnQrnvz9RXQJ69IqJUL-40" style="edgeStyle=orthogonalEdgeStyle;rounded=0;orthogonalLoop=1;jettySize=auto;html=1;entryX=0;entryY=0.5;entryDx=0;entryDy=0;strokeColor=#009100;" edge="1" parent="1" source="fqnQrnvz9RXQJ69IqJUL-6" target="fqnQrnvz9RXQJ69IqJUL-18">
          <mxGeometry relative="1" as="geometry">
            <mxPoint x="400" y="210" as="sourcePoint" />
          </mxGeometry>
        </mxCell>
        <mxCell id="fqnQrnvz9RXQJ69IqJUL-41" style="edgeStyle=orthogonalEdgeStyle;rounded=0;orthogonalLoop=1;jettySize=auto;html=1;strokeColor=#009100;exitX=0.5;exitY=1;exitDx=0;exitDy=0;" edge="1" parent="1" source="fqnQrnvz9RXQJ69IqJUL-51" target="fqnQrnvz9RXQJ69IqJUL-29">
          <mxGeometry relative="1" as="geometry" />
        </mxCell>
        <mxCell id="fqnQrnvz9RXQJ69IqJUL-42" value="Tableau de prédictions" style="html=1;strokeColor=#FF0000;" vertex="1" parent="1">
          <mxGeometry x="1170" y="312" width="150" height="50" as="geometry" />
        </mxCell>
        <mxCell id="fqnQrnvz9RXQJ69IqJUL-43" style="edgeStyle=orthogonalEdgeStyle;rounded=0;orthogonalLoop=1;jettySize=auto;html=1;strokeColor=#009100;" edge="1" parent="1" source="fqnQrnvz9RXQJ69IqJUL-29" target="fqnQrnvz9RXQJ69IqJUL-42">
          <mxGeometry relative="1" as="geometry" />
        </mxCell>
        <mxCell id="fqnQrnvz9RXQJ69IqJUL-44" style="edgeStyle=orthogonalEdgeStyle;rounded=0;orthogonalLoop=1;jettySize=auto;html=1;fontColor=#006600;strokeColor=#003000;fillColor=#cdeb8b;" edge="1" parent="1" source="fqnQrnvz9RXQJ69IqJUL-45" target="fqnQrnvz9RXQJ69IqJUL-9">
          <mxGeometry relative="1" as="geometry" />
        </mxCell>
        <mxCell id="fqnQrnvz9RXQJ69IqJUL-45" value="&lt;div&gt;&lt;span style=&quot;&quot;&gt;&lt;font&gt;titanic.csv&lt;/font&gt;&lt;/span&gt;&lt;/div&gt;" style="ellipse;whiteSpace=wrap;html=1;strokeColor=#003000;fillColor=#cdeb8b;labelBackgroundColor=none;fontColor=#003000;" vertex="1" parent="1">
          <mxGeometry x="10" y="290" width="60" height="40" as="geometry" />
        </mxCell>
        <mxCell id="fqnQrnvz9RXQJ69IqJUL-46" style="edgeStyle=orthogonalEdgeStyle;rounded=0;orthogonalLoop=1;jettySize=auto;html=1;entryX=0;entryY=0.75;entryDx=0;entryDy=0;fontColor=#006600;strokeColor=#003000;" edge="1" parent="1" source="fqnQrnvz9RXQJ69IqJUL-9" target="fqnQrnvz9RXQJ69IqJUL-33">
          <mxGeometry relative="1" as="geometry">
            <Array as="points">
              <mxPoint x="350" y="259" />
              <mxPoint x="350" y="533" />
            </Array>
          </mxGeometry>
        </mxCell>
        <mxCell id="fqnQrnvz9RXQJ69IqJUL-47" style="edgeStyle=orthogonalEdgeStyle;rounded=0;orthogonalLoop=1;jettySize=auto;html=1;fontColor=#003000;strokeColor=#003000;entryX=0;entryY=0.5;entryDx=0;entryDy=0;entryPerimeter=0;" edge="1" parent="1" source="fqnQrnvz9RXQJ69IqJUL-34" target="fqnQrnvz9RXQJ69IqJUL-48">
          <mxGeometry relative="1" as="geometry">
            <mxPoint x="1130" y="533" as="targetPoint" />
          </mxGeometry>
        </mxCell>
        <mxCell id="fqnQrnvz9RXQJ69IqJUL-48" value="Meilleures règles trouvées en texte" style="shape=note;size=20;whiteSpace=wrap;html=1;fontColor=#003000;strokeColor=#FF0000;" vertex="1" parent="1">
          <mxGeometry x="1150" y="498" width="100" height="70" as="geometry" />
        </mxCell>
        <mxCell id="fqnQrnvz9RXQJ69IqJUL-49" value="&lt;div&gt;2 lignes en trop sont ajoutées &lt;br&gt;&lt;/div&gt;&lt;div&gt;par Orange : à supprimer&lt;/div&gt;" style="html=1;fontColor=#003000;strokeColor=#FF0000;" vertex="1" parent="1">
          <mxGeometry x="660" y="20" width="180" height="50" as="geometry" />
        </mxCell>
        <mxCell id="fqnQrnvz9RXQJ69IqJUL-50" style="edgeStyle=orthogonalEdgeStyle;rounded=0;orthogonalLoop=1;jettySize=auto;html=1;entryX=0.5;entryY=1;entryDx=0;entryDy=0;fontColor=#003000;strokeColor=#FF0000;dashed=1;" edge="1" parent="1" source="fqnQrnvz9RXQJ69IqJUL-51" target="fqnQrnvz9RXQJ69IqJUL-49">
          <mxGeometry relative="1" as="geometry" />
        </mxCell>
        <mxCell id="fqnQrnvz9RXQJ69IqJUL-51" value="" style="ellipse;whiteSpace=wrap;html=1;aspect=fixed;strokeColor=#b85450;fillColor=#f8cecc;" vertex="1" parent="1">
          <mxGeometry x="740" y="249" width="20" height="20" as="geometry" />
        </mxCell>
        <mxCell id="fqnQrnvz9RXQJ69IqJUL-52" style="edgeStyle=orthogonalEdgeStyle;rounded=0;orthogonalLoop=1;jettySize=auto;html=1;entryX=0;entryY=0.5;entryDx=0;entryDy=0;fontColor=#003000;strokeColor=#009100;" edge="1" parent="1" source="fqnQrnvz9RXQJ69IqJUL-18" target="fqnQrnvz9RXQJ69IqJUL-51">
          <mxGeometry relative="1" as="geometry" />
        </mxCell>
      </root>
    </mxGraphModel>
  </diagram>
</mxfile>
